<?xml version="1.0" encoding="utf-8"?>
<svg version="1.1" id="Layer_1" x="0px" y="0px" viewBox="0 0 512 512" style="enable-background:new 0 0 512 512;" xmlns="http://www.w3.org/2000/svg">
  <path style="fill: rgb(18, 18, 18);" d="M460.8,503.916H51.2c-23.812,0-43.116-19.304-43.116-43.116V51.2 c0-23.812,19.304-43.116,43.116-43.116h409.6c23.812,0,43.116,19.304,43.116,43.116v409.6 C503.916,484.612,484.612,503.916,460.8,503.916z"/>
  <path style="fill: rgb(18, 18, 18);" d="M404.891,428.317H107.109c-11.747,0-21.27-9.523-21.27-21.27V109.265 c0-11.747,9.523-21.27,21.27-21.27h297.782c11.747,0,21.27,9.523,21.27,21.27v297.782 C426.161,418.794,416.639,428.317,404.891,428.317z"/>
  <path style="fill: rgb(18, 18, 18);" d="M358.4,161.145v194.021c0,2.976-2.413,5.389-5.389,5.389H158.989c-2.976,0-5.389-2.413-5.389-5.389 V193.482v-32.337c0-2.976,2.413-5.389,5.389-5.389h64.674H256h97.011C355.987,155.756,358.4,158.169,358.4,161.145z"/>
  <path style="fill: rgb(18, 18, 18);" d="M288.337,229.053v53.895c0,2.976-2.413,5.389-5.389,5.389h-53.895c-2.976,0-5.389-2.413-5.389-5.389 v-53.895c0-2.976,2.413-5.389,5.389-5.389h53.895C285.923,223.663,288.337,226.077,288.337,229.053z"/>
  <path d="M 156.295 35.032 L 156.295 75.453 L 309.895 75.453 C 314.36 75.453 317.979 79.073 317.979 83.537 C 317.979 88.001 314.359 91.621 309.895 91.621 L 105.095 91.621 C 97.665 91.621 91.621 97.665 91.621 105.095 L 91.621 309.895 C 91.621 314.36 88.001 317.979 83.537 317.979 C 79.073 317.979 75.453 314.359 75.453 309.895 L 75.453 105.095 C 75.453 88.75 88.75 75.453 105.095 75.453 L 140.127 75.453 L 140.127 35.032 C 140.127 30.567 143.747 26.948 148.211 26.948 C 152.675 26.947 156.295 30.567 156.295 35.032 Z M 406.905 75.453 L 363.789 75.453 C 359.324 75.453 355.705 79.073 355.705 83.537 C 355.705 88.001 359.325 91.621 363.789 91.621 L 406.905 91.621 C 414.335 91.621 420.379 97.665 420.379 105.095 L 420.379 406.906 C 420.379 414.336 414.335 420.38 406.905 420.38 L 363.789 420.38 C 359.324 420.38 355.705 424 355.705 428.464 C 355.705 432.928 359.325 436.548 363.789 436.548 L 406.905 436.548 C 423.25 436.548 436.547 423.251 436.547 406.906 L 436.547 307.2 L 475.531 307.2 C 479.996 307.2 483.615 303.58 483.615 299.116 C 483.615 294.651 479.995 291.032 475.531 291.032 L 436.547 291.032 L 436.547 105.095 C 436.547 88.75 423.25 75.453 406.905 75.453 Z M 503.916 420.379 C 499.451 420.379 495.832 423.999 495.832 428.463 L 495.832 460.8 C 495.832 480.116 480.116 495.832 460.8 495.832 L 51.2 495.832 C 31.884 495.832 16.168 480.116 16.168 460.8 L 16.168 137.432 C 16.168 132.967 12.548 129.348 8.084 129.348 C 3.62 129.348 0 132.967 0 137.432 L 0 460.8 C 0 489.031 22.969 512 51.2 512 L 460.8 512 C 489.031 512 512 489.031 512 460.8 L 512 428.463 C 512 423.999 508.38 420.379 503.916 420.379 Z M 280.713 231.747 C 281.822 234.887 284.818 237.136 288.337 237.136 C 292.802 237.136 296.421 233.516 296.421 229.052 C 296.421 221.622 290.377 215.578 282.947 215.578 L 229.052 215.578 C 221.622 215.578 215.578 221.622 215.578 229.052 L 215.578 282.947 C 215.578 290.377 221.622 296.421 229.052 296.421 L 282.947 296.421 C 290.377 296.421 296.421 290.377 296.421 282.947 L 296.421 266.779 C 296.421 262.314 292.801 258.695 288.337 258.695 C 283.873 258.695 280.253 262.315 280.253 266.779 L 280.253 280.253 L 231.748 280.253 L 231.748 231.748 L 280.713 231.748 L 280.713 231.747 Z M 460.8 0 L 51.2 0 C 22.969 0 0 22.969 0 51.2 L 0 105.095 C 0 109.56 3.62 113.179 8.084 113.179 C 12.548 113.179 16.168 109.559 16.168 105.095 L 16.168 51.2 C 16.168 31.884 31.884 16.168 51.2 16.168 L 460.8 16.168 C 480.116 16.168 495.832 31.884 495.832 51.2 L 495.832 396.126 C 495.832 400.591 499.452 404.21 503.916 404.21 C 508.38 404.21 512 400.59 512 396.126 L 512 51.2 C 512 22.969 489.031 0 460.8 0 Z M 245.221 145.516 C 240.756 145.516 237.137 149.136 237.137 153.6 C 237.137 158.065 240.757 161.684 245.221 161.684 L 347.621 161.684 C 349.106 161.684 350.316 162.893 350.316 164.379 L 350.316 347.621 C 350.316 349.106 349.107 350.316 347.621 350.316 L 164.379 350.316 C 162.894 350.316 161.684 349.107 161.684 347.621 L 161.684 164.379 C 161.684 162.894 162.893 161.684 164.379 161.684 L 191.326 161.684 C 195.791 161.684 199.41 158.064 199.41 153.6 C 199.41 149.135 195.79 145.516 191.326 145.516 L 164.379 145.516 C 153.978 145.516 145.516 153.979 145.516 164.379 L 145.516 347.621 C 145.516 358.022 153.979 366.484 164.379 366.484 L 347.621 366.484 C 358.022 366.484 366.484 358.021 366.484 347.621 L 366.484 199.411 L 400.438 199.411 C 404.903 199.411 408.522 195.791 408.522 191.327 C 408.522 186.862 404.902 183.243 400.438 183.243 L 366.484 183.243 L 366.484 164.38 C 366.484 153.979 358.021 145.517 347.621 145.517 L 245.221 145.517 L 245.221 145.516 Z M 28.025 363.789 C 28.025 368.254 31.645 371.873 36.109 371.873 L 75.452 371.873 L 75.452 406.905 C 75.452 423.25 88.749 436.547 105.094 436.547 L 331.452 436.547 C 335.917 436.547 339.536 432.927 339.536 428.463 C 339.536 423.999 335.916 420.379 331.452 420.379 L 105.095 420.379 C 97.665 420.379 91.621 414.335 91.621 406.905 L 91.621 369.179 C 91.621 361.749 85.58 355.705 78.157 355.705 L 36.109 355.705 C 31.645 355.705 28.025 359.325 28.025 363.789 Z" style="fill: rgb(30, 215, 96);"/>
  <g/>
  <g/>
  <g/>
  <g/>
  <g/>
  <g/>
  <g/>
  <g/>
  <g/>
  <g/>
  <g/>
  <g/>
  <g/>
  <g/>
  <g/>
</svg>